<!DOCTYPE svg PUBLIC "-//W3C//DTD SVG 20010904//EN" "http://www.w3.org/TR/2001/REC-SVG-20010904/DTD/svg10.dtd">
<svg version="1.0" xmlns="http://www.w3.org/2000/svg" width="812px" height="110px" viewBox="0 0 8120 1100" preserveAspectRatio="xMidYMid meet">
<g id="layer101" fill="#222629" stroke="none">
 <path d="M0 550 l0 -550 4060 0 4060 0 0 550 0 550 -4060 0 -4060 0 0 -550z"/>
 </g>
<g id="layer102" fill="#446b29" stroke="none">
 <path d="M0 550 l0 -550 4060 0 4060 0 0 550 0 550 -4060 0 -4060 0 0 -550z m870 215 l0 -35 -252 -2 -253 -3 0 -215 0 -215 253 -3 252 -2 0 -35 0 -35 -261 0 -261 0 -29 29 -29 29 0 229 c0 245 3 263 54 283 11 5 135 9 274 9 l252 1 0 -35z m494 24 c46 -21 56 -62 56 -224 0 -162 -10 -203 -56 -224 -34 -15 -335 -15 -369 1 -48 22 -55 52 -55 225 1 169 7 194 51 219 31 17 336 19 373 3z m206 -183 c0 -168 2 -195 16 -200 30 -11 209 -7 222 6 8 8 12 67 12 200 l0 188 35 0 35 0 0 -188 c0 -133 4 -192 12 -200 16 -16 210 -16 226 0 8 8 12 67 12 200 l0 188 35 0 35 0 0 -195 c0 -213 -6 -241 -55 -263 -18 -9 -118 -12 -340 -12 l-315 0 0 235 0 235 35 0 35 0 0 -194z m770 6 c0 -133 4 -192 12 -200 16 -16 210 -16 226 0 8 8 12 67 12 200 l0 188 35 0 35 0 0 -188 c0 -133 4 -192 12 -200 13 -13 192 -17 222 -6 14 5 16 32 16 200 l0 194 35 0 35 0 0 -204 c0 -202 0 -205 -24 -233 l-24 -28 -331 -3 -331 -3 0 236 0 235 35 0 35 0 0 -188z m1188 -18 l-3 -206 -33 -29 -32 -29 -205 0 -205 0 0 35 0 35 195 0 c221 0 219 -1 213 83 l-3 42 -202 3 -203 2 0 103 c0 107 8 130 55 155 13 7 95 12 223 12 l203 0 -3 -206z m132 25 c0 -105 4 -188 10 -200 10 -17 23 -19 158 -19 102 0 152 4 160 12 8 8 12 67 12 200 l0 188 35 0 35 0 0 -202 c-1 -280 12 -268 -279 -268 l-201 0 0 235 0 235 35 0 35 0 0 -181z m940 -129 l0 -310 -35 0 -35 0 0 74 0 75 -176 3 -176 3 -24 28 c-23 27 -24 33 -24 200 0 185 5 208 54 227 11 5 110 9 219 9 l197 1 0 -310z m880 275 l0 -35 -243 0 c-176 0 -246 -3 -255 -12 -17 -17 -17 -399 0 -416 9 -9 79 -12 255 -12 l243 0 0 -35 0 -35 -255 0 c-282 0 -293 2 -314 62 -7 18 -11 114 -11 230 0 215 7 254 53 276 14 7 118 11 275 11 l252 1 0 -35z m550 0 l0 -35 -197 -2 -198 -3 -3 -62 -3 -63 201 0 200 0 0 -104 c0 -96 -2 -107 -24 -133 l-24 -28 -187 0 -187 0 -24 28 c-23 27 -24 33 -24 200 0 185 5 208 54 227 11 5 110 9 219 9 l197 1 0 -35z m150 -146 c0 -105 4 -188 10 -200 10 -17 23 -19 158 -19 102 0 152 4 160 12 8 8 12 67 12 200 l0 188 35 0 35 0 0 -202 c-1 -280 12 -268 -279 -268 l-201 0 0 235 0 235 35 0 35 0 0 -181z m760 146 l0 -35 -84 0 c-46 0 -91 -3 -100 -6 -14 -5 -16 -29 -16 -165 l0 -159 100 0 100 0 0 -35 0 -35 -100 0 -100 0 0 -75 0 -75 -35 0 -35 0 0 278 c0 352 -6 340 173 341 l97 1 0 -35z m530 0 l0 -35 -197 -2 -198 -3 -3 -62 -3 -63 201 0 200 0 0 -104 c0 -96 -2 -107 -24 -133 l-24 -28 -187 0 -187 0 -24 28 c-23 27 -24 33 -24 200 0 185 5 208 54 227 11 5 110 9 219 9 l197 1 0 -35z m150 -165 l5 -195 143 -3 142 -3 0 -35 0 -35 -155 3 c-154 3 -155 3 -182 31 l-28 27 -3 206 -3 205 38 -3 38 -3 5 -195z"/>
 <path d="M1022 718 c-17 -17 -17 -289 0 -306 17 -17 299 -17 316 0 17 17 17 289 0 306 -17 17 -299 17 -316 0z"/>
 <path d="M3132 718 c-6 -6 -12 -36 -12 -65 l0 -53 168 2 167 3 0 60 0 60 -155 3 c-113 2 -159 -1 -168 -10z"/>
 <path d="M4213 723 c-10 -3 -13 -45 -13 -158 0 -130 2 -154 16 -159 20 -8 278 -8 298 0 24 9 24 309 0 318 -19 7 -283 7 -301 -1z"/>
 <path d="M5632 468 l3 -63 140 -3 c190 -4 185 -6 185 68 l0 60 -165 0 -166 0 3 -62z"/>
 <path d="M7072 468 l3 -63 140 -3 c190 -4 185 -6 185 68 l0 60 -165 0 -166 0 3 -62z"/>
 </g>

</svg>